<?xml version="1.0"?>
<svg xmlns:rdf="http://www.w3.org/1999/02/22-rdf-syntax-ns#" xmlns="http://www.w3.org/2000/svg" xmlns:cc="http://creativecommons.org/ns#" xmlns:xlink="http://www.w3.org/1999/xlink" xmlns:dc="http://purl.org/dc/elements/1.1/" id="svg2" viewBox="0 0 976.4 1234.8" version="1.1">
  <defs id="defs6">
    <filter id="filter3078" color-interpolation-filters="sRGB">
      <feFlood id="feFlood3080" flood-color="rgb(0,0,0)" flood-opacity=".734" result="flood"/>
      <feComposite id="feComposite3082" operator="in" result="composite1" in2="SourceGraphic" in="flood"/>
      <feGaussianBlur id="feGaussianBlur3084" stdDeviation="14.6" result="blur"/>
      <feOffset id="feOffset3086" result="offset" dx="4.2" dy="4.2"/>
      <feComposite id="feComposite3088" operator="over" result="composite2" in2="offset" in="SourceGraphic"/>
    </filter>
  </defs>
  <path id="path2992" style="color:#000000" d="m254.9 824.03c-45.02-82.842-97.287-164.17-169.59-225.9-8.9464-7.779-21.718-18.22-21.828-19.1 0 0 8.303-7.4683 13.116-10.756 41.783-29.378 82.044-60.965 123.97-90.047 23.338 59.129 40.139 121.13 60.931 176.01 47.269-117.12 102.94-232.9 179.13-334.3 34.344-46.609 74.52-90.087 122.83-122.41-11.798 69.094-15.056 144.51-7.3755 207.33 2.2777 13.244 3.1557 38.518 3.1557 38.518s-16.837 9.9744-17.49 10.621c-61.586 41.236-104.07 103.28-149.53 160.35-47.099 69.073-96.282 140.25-132.78 215.78-0.2573 2.4621-3.5189-4.6527-4.5353-6.0878z" transform="matrix(1.4942 0 0 1.4942 19.811 -150.75)" filter="url(#filter3078)" stroke="#000" stroke-width="3.1321" fill="#f00"/>
  <path id="path2990" style="color:#000000" stroke-width="3.0561" stroke="#000" d="m605.09 1118.7c17.583-0.6312 19.131-1.9275 15.274-12.788-1.4697-4.1379-2.2811-8.1562-1.8031-8.9295 0.47785-0.7733-0.0194-1.964-1.1054-2.6459-6.2131-3.902-7.6216-20.705-7.8723-93.917-0.0822-24.079-0.57214-43.521-1.0884-43.205-1.2253 0.75056-4.33-30.237-3.2154-32.093 1.184-1.9716 1.3216-74.217 0.14195-74.217-0.94674-29.002-2.1982-62.74-5.7807-89.39-2.6803-20.165-4.2786-27.472-7.1437-32.663-2.03-3.6776-3.691-7.2876-3.691-8.0222 0-0.73457-1.3753-2.7108-3.0561-4.3916-3.9799-3.9798-3.8542-5.2579 0.72186-7.3429 2.2551-1.0275 4.1128-3.4361 4.6089-5.9754 0.45709-2.3397 1.5222-7.0045 2.3668-10.366 2.5405-10.11 2.7518-11.521 4.5746-30.547 0.96542-10.078 2.1478-18.958 2.6273-19.734 0.96183-1.5562 1.5386-6.8939 1.9969-18.48 0.63952-16.165-5.4343-34.064-14.946-44.044-3.5122-3.6852-6.5912-7.6415-6.8419-8.7919-0.25088-1.1503-1.5767-2.7975-2.9463-3.6603-1.3696-0.86284-6.1988-4.3976-10.731-7.855-4.5327-3.4574-11.138-7.7638-14.678-9.5698-7.3752-3.7625-10.301-7.7168-11.727-15.851-0.55257-3.1516-1.7621-5.7301-2.6877-5.7301-1.1898 0-1.311-3.4708-0.41375-11.842 2.2869-21.337 2.0574-29.347-1.1096-38.726-6.7083-19.864-26.514-26.507-46.831-15.706-8.8069 4.6817-15.53 10.966-15.53 14.517 0 1.474-0.68764 3.105-1.528 3.6244-0.84035 0.51941-1.528 3.2781-1.528 6.1304s-0.80658 6.9561-1.7922 9.1194c-1.3709 3.0088-1.3709 4.3547 0 5.7256 2.7917 2.7918 2.135 6.9534-2.0678 13.104l-3.8602 5.649 3.2127 2.6314c1.8324 1.5009 2.734 3.4057 2.0985 4.4339-0.61861 1.001 0.0299 2.6394 1.4598 3.6846 2.2165 1.6207 2.3044 2.4736 0.6334 6.141-1.5356 3.3705-1.5458 4.3905-0.0478 4.8896 1.0407 0.34688 1.8921 1.8924 1.8921 3.4344 0 7.6115 6.1079 9.8875 16.218 6.0436 5.2311-1.9889 9.2939 1.5163 9.9812 8.6114 0.41285 4.2623-0.73561 5.6878-11.725 14.552-9.0805 7.3243-12.662 11.286-14.065 15.558-2.1962 6.6858-4.9235 21.506-5.9622 32.399-0.71902 19.598-3.4128 7.0234-1.5931 26.74 0.39731 4.6223 1.2164 10.295 1.8201 12.606 0.87815 3.362 0.5802 4.2021-1.4902 4.2021-1.4232 0-4.7261 2.1383-7.3395 4.7518-4.0435 4.0434-6.1332 4.8472-14.017 5.3918-5.0957 0.35201-13.519 1.7362-18.718 3.076-9.1588 2.3602-9.5775 2.3376-13.474-0.72758-3.3411-2.6282-4.6549-2.875-7.7634-1.4588-3.1002 1.4126-4.0864 1.2332-5.7535-1.0467-1.8176-2.4857-2.5899-2.5531-7.9965-0.69728-7.0642 2.4248-20.617 1.9833-22.793-0.74255-2.2917-2.8706-15.574-7.5263-18.389-6.4458-4.1641 1.5979-8.1596-1.7995-9.2314-7.8496-9.8528-10.415-12.115-18.574-19.743-27.334-6.6588-7.7128-7.902-10.362-11.654-24.83-5.2907-20.403-8.367-29.031-11.64-32.648-1.4189-1.5678-7.1554-5.8925-12.748-9.6103-12.394-8.2395-13.553-9.5696-12.613-14.468 1.0436-5.4337 8.3007-9.1318 17.921-9.1318 4.3935 0 9.0632-0.85952 10.377-1.91 2.8719-2.2964 5.8355-10.691 5.8355-16.529 0-5.8156 1.4451-9.0651 4.0316-9.0651 3.7692 0 3.8902-3.932 0.30796-10.003-2.8289-4.7945-3.48-8.2408-3.5791-18.939-0.0911-9.7832 0.44109-13.506 2.1104-14.775 2.6058-1.9816 1.8025-3.2632-8.219-13.112-9.8648-9.6951-22.433-15.005-35.145-14.849-10.05 0.12372-15.754 2.4025-24.268 9.6941-12.4 10.621-14.48 24.365-6.9843 46.152 3.226 9.3766 3.9214 19.657 1.4336 21.194-0.85245 0.52682-2.8858 3.5763-4.5184 6.7766-3.2078 6.2878-11.795 12.31-17.552 12.31-1.9695 0-7.2592 1.7123-11.755 3.8051-4.4955 2.0928-9.2268 3.8119-10.514 3.8201-3.0328 0.0193-18.767 16.138-21.955 22.492-5.8203 11.6-21.469 57.693-28.591 84.216-3.5247 13.126-4.3861 18.844-3.5684 23.684 0.59291 3.5095 0.8166 6.4315 0.49713 6.4933-0.31946 0.0617 2.2232 2.9729 5.6506 6.4692 7.5608 7.7132 16.205 10.991 28.988 10.991 8.035 0 10.372 0.63033 14.163 3.8201 2.497 2.101 5.2546 3.8201 6.1282 3.8201 1.9979 0 1.1934 4.5053-2.8759 16.104-2.6886 7.6631-3.1731 12.478-3.0542 30.347-1.004 24.953-0.23265 24.944 0.79941 37.303 0.52895 6.4612 2.0175 16.785 3.3078 22.943 0.2201 32.109 8.6668 56.791 7.4584 82.015-4.3401 19.958-0.92343 31.099-0.48786 49.762-0.13747 24.403 1.1476 28.804 1.5264 45.358 0.29675 18.359 0.99829 23.494 2.0021 32.068 0.54913 4.8437 1.9802 13.788 3.1802 19.877 2.9317 14.874 4.9838 36.554 4.1067 43.383-0.92671 7.2141 1.6749 12.016 6.5099 12.016 4.1267 0 4.9967 2.1997 1.632 4.1261-2.4348 1.394-0.28285 4.074 3.6623 4.5609 1.2605 0.1556 5.3862 1.4328 9.1681 2.8381 5.52 2.0513 9.438 2.3342 19.864 1.4346 7.1436-0.6163 14.879-1.1326 17.19-1.1473 3.0156-0.019 4.202-0.8023 4.202-2.7734 0-1.5106 0.69884-3.1785 1.5529-3.7063 2.4717-1.5277 0.0003-4.0187-3.0322-3.0562-1.9891 0.6313-2.9974-0.1126-3.6438-2.688-0.4916-1.9585-3.5975-6.4895-6.902-10.069l-6.0084-6.5082 3.8248-12.454c3.4808-11.334 3.739-14.04 2.8707-30.088-0.52477-9.6988-1.376-21.072-1.8917-25.274-1.4364-11.706-1.4557-97.385-0.0224-100.85 1.2111-2.9285 1.3473-2.8966 3.2632 0.76401 4.8664 26.882 13.452 60.734 17.111 75.518-0.32858 0.90589 0.0882 2.9735 0.92433 4.5946 0.83691 1.6211 2.4036 6.7782 3.4814 11.46 2.4363 19.661 5.492 27.036 10.265 42.893 1.4019 4.6223 3.3012 12.32 4.2207 17.107l1.672 8.7027 6.403 0.4654c3.905 0.2839 6.2677 1.17 6.0558 2.2714-2.1373 11.114-2.1848 14.231-0.22593 14.829 1.1556 0.353 5.2089 1.5932 9.007 2.7561 6.3062 1.9308 12.005 1.6754 18.307-0.8205 3.0131-1.1934 10.492 4.8792 7.9467 6.4523-2.1938 1.3559 22.987 5.2867 29.491 4.6037 6.9407 2.0864 11.618-1.2727 17.573-2.1224 7.9727-1.0965 9.1239-2.2128 5.4372-5.2725-1.2106-1.0047-1.8518-2.7375-1.4246-3.8505 1.0096-2.6312-8.2405-9.4027-13.182-9.65-7.7719-0.389-10.435-1.9961-16.33-9.8563-5.859-7.8111-7.8109-13.059-11.108-29.868-0.87098-4.4399-2.9317-10.715-4.5795-13.945-1.6477-3.2299-2.5996-6.2687-2.1154-6.7529 0.48428-0.4842-0.2328-1.9937-1.5934-3.3544-1.3608-1.3607-2.474-3.5054-2.474-4.766s-0.98275-3.2748-2.184-4.476c-2.4073-2.4074-4.9368-13.652-5.9902-26.63-0.3752-4.6223-1.7753-12.47-3.1113-17.439-1.3854-5.1533-1.8702-9.7483-1.1281-10.696 0.71543-0.91397 1.3523-2.6932 1.4152-3.9538 0.0628-1.2606 0.94883-6.7615 1.9688-12.224 1.626-8.7082 1.5108-11.062-0.93433-19.1-1.534-5.0425-2.6046-10.2-2.3794-11.46 0.22533-1.2606-0.13896-1.7521-0.80807-1.0922-6.2496-13.079-10.389-37.677-10.514-46.659-0.15062-12.396-0.73217-22.997-1.2924-23.557-0.56019-0.56021-1.0185-5.4461-1.0185-10.857 0-5.4114-0.98394-13.72-2.1866-18.464-1.2026-4.7436-2.5568-10.688-3.0094-13.209-0.4526-2.5212-3.2767-12.446-6.2759-22.054-0.19828-11.721-7.9436-22.674-9.3788-32.75-0.93194-6.8907-0.78745-7.3655 1.9752-6.4886 2.413 0.76587 3.6614-0.43747 6.5537-6.3175 4.0311-8.1949 6.4894-17.196 4.6965-17.196-1.2266 0-6.127-13.596-6.127-16.999 0-1.0498 1.9286-0.0611 4.2857 2.1972 2.6466 2.5356 6.0069 4.1147 8.7862 4.129 4.5417 0.0232 13.394 2.6712 17.33 5.1838 3.3447 2.1351 24.711 1.0059 28.281-1.4946 1.7151-1.2013 4.679-2.1842 6.5867-2.1842 3.6683 0 11.113 5.5355 11.159 8.2977 0.0389 2.305 10.736 10.865 14.919 11.939 2.52 0.64683 4.838-0.33959 8.3626-3.5588 2.682-2.4495 5.7761-4.4537 6.8757-4.4537 1.0997 0 2.3952-1.0314 2.8791-2.292 0.48368-1.2606 1.8545-2.292 3.0463-2.292 1.1916 0 2.5811-2.0718 3.0875-4.6039 0.65761-3.2878 2.0434-4.8856 4.8474-5.5894 2.4196-0.60728 4.153-0.30643 4.5166 0.78384 0.37998 1.14 4.8538 1.7694 12.577 1.7694 8.6184 0 12.632 0.64422 14.28 2.292 1.2605 1.2606 3.4188 2.292 4.7962 2.292 3.0782 0 1.768 5.8492-1.9682 8.7862-1.3364 1.0505-1.9897 1.91-1.4518 1.91 0.53807 0 0.0149 2.3192-1.1752 5.1538-1.4418 3.4506-2.2243 11.909-2.3679 25.594-4.1408 29.703 2.2661 40.566 3.947 61.682 0.33127 4.1937 0.9835 11.07 1.4494 15.28 0.4659 4.2105 1.233 12.813 1.7048 19.116 1.3375 17.872 3.346 36.571 5.0059 46.605 1.591 9.6173 4.8594 34.422 5.7381 43.549 0.28331 2.9414 1.2468 8.3817 2.1411 12.09-3.5473 20.764 8.6856 28.021 8.944 50.928-1.578 24.028 0.868 15.075 0.73785 42.416-0.1285 21.894-0.48966 24.4-3.9806 27.575-1.8909 1.7199-4.5272 4.1265-5.8582 5.3481-1.3312 1.2216-3.8597 2.2211-5.6192 2.2211-1.7594 0-4.6227 1.8098-6.3625 4.0218-2.7388 3.4818-3.9845 3.9116-9.2791 3.2014-3.3635-0.4511-6.1156-0.3143-6.1156 0.3042 0 0.6184-1.719 2.0444-3.82 3.1688-4.4937 2.405-5.1277 8.2548-1.1461 10.574-18.501 7.3559 73.849 1.9531 92.131 2.6891 5.2695-0.03 5.4225-0.199 5.6638-6.2522 0.13597-3.4217-0.72754-7.7102-1.9199-9.5302-1.1924-1.8199-2.9852-6.5536-3.9837-10.52-1.5892-6.3115-1.5012-7.3865 0.70632-8.6219 3.2103-1.7965 3.1585-5.2381-0.44498-29.528 3.0588-29.643-4.6137-70.794 0.99739-97.21l2.6155-11.64 2.651 7.5278c1.4579 4.1403 2.2579 8.5519 1.7775 9.8036-0.48024 1.2517 0.17617 3.1024 1.4588 4.1125 2.8475 2.2425 5.7619 12.454 10.985 38.491 4.4541 23.4 4.9592 23.575 8.3001 40.129 3.4996 17.443 11.164 45.189 14.788 53.533-0.28794 6.8701-2.4773 19.77 0.58364 25.929-2.1364 7.1309-0.44588 11.073 4.7485 11.073 1.5283 0 3.2038 0.6876 3.7232 1.528 0.51939 0.8404 1.4195 1.3853 2.0002 1.2109 0.5808-0.1744 7.3529-0.5432 15.049-0.8195z"/>
  <metadata>
    <rdf:RDF>
      <cc:Work>
        <dc:format>image/svg+xml</dc:format>
        <dc:type rdf:resource="http://purl.org/dc/dcmitype/StillImage"/>
        <cc:license rdf:resource="http://creativecommons.org/licenses/publicdomain/"/>
        <dc:publisher>
          <cc:Agent rdf:about="http://openclipart.org/">
            <dc:title>Openclipart</dc:title>
          </cc:Agent>
        </dc:publisher>
      </cc:Work>
      <cc:License rdf:about="http://creativecommons.org/licenses/publicdomain/">
        <cc:permits rdf:resource="http://creativecommons.org/ns#Reproduction"/>
        <cc:permits rdf:resource="http://creativecommons.org/ns#Distribution"/>
        <cc:permits rdf:resource="http://creativecommons.org/ns#DerivativeWorks"/>
      </cc:License>
    </rdf:RDF>
  </metadata>
</svg>
